<svg width="24" height="24" viewBox="0 0 24 24" fill="none" xmlns="http://www.w3.org/2000/svg">
<g id="icon_&#230;&#139;&#141;&#231;&#133;&#167;">
<path id="Vector" d="M19.368 18.696H17.28C16.956 18.696 16.692 18.432 16.692 18.108C16.692 17.784 16.956 17.52 17.28 17.52H19.14V9.372H17.076C16.86 9.372 16.644 9.3 16.476 9.156L13.464 6.696H10.296L7.39201 9.144C7.22401 9.288 7.00801 9.372 6.78001 9.372H4.94401V17.508H6.91201C7.23601 17.508 7.50001 17.772 7.50001 18.096C7.50001 18.42 7.23601 18.684 6.91201 18.684H4.71601C4.18801 18.684 3.76801 18.252 3.76801 17.736V9.132C3.76801 8.604 4.20001 8.184 4.71601 8.184H6.69601L9.60001 5.736C9.76801 5.592 9.98401 5.508 10.212 5.508H13.548C13.764 5.508 13.98 5.58 14.148 5.724L17.16 8.184H19.368C19.896 8.184 20.316 8.616 20.316 9.132V17.736C20.316 18.264 19.896 18.696 19.368 18.696Z" fill="#999999"/>
<path id="Vector_2" d="M12.036 18.696C9.52801 18.696 7.48801 16.656 7.48801 14.148C7.48801 11.64 9.52801 9.59998 12.036 9.59998C14.544 9.59998 16.584 11.64 16.584 14.148C16.584 16.656 14.544 18.696 12.036 18.696ZM12.036 10.776C10.176 10.776 8.67601 12.288 8.67601 14.136C8.67601 15.984 10.188 17.496 12.036 17.496C13.884 17.496 15.396 15.984 15.396 14.136C15.396 12.288 13.896 10.776 12.036 10.776Z" fill="#999999"/>
</g>
</svg>
