<svg width="16" height="16" viewBox="0 0 16 16" fill="none" xmlns="http://www.w3.org/2000/svg">
<g id="icon_&#229;&#157;&#144;&#230;&#160;&#135;">
<path id="Vector" d="M8.00001 0.800049C11.088 0.800049 13.6 3.41365 13.6 6.62645C13.6 8.08485 13.088 9.43205 12.1208 10.5216L8.92081 14.7312C8.81429 14.8756 8.67562 14.993 8.51579 15.0744C8.35595 15.1558 8.17936 15.1988 8.00001 15.2C7.82137 15.1997 7.64526 15.1578 7.48559 15.0777C7.32592 14.9976 7.18707 14.8815 7.08001 14.7384L3.81601 10.4904C2.89693 9.41302 2.39455 8.04181 2.40001 6.62565C2.40001 3.41365 4.91201 0.800049 8.00001 0.800049ZM10.8504 6.42645C10.8504 4.80725 9.57761 3.48885 8.01281 3.48885C7.25841 3.48885 6.54721 3.79765 6.01281 4.35525C5.47645 4.91629 5.17924 5.66389 5.18401 6.44005C5.18961 8.05925 6.46241 9.37685 8.02081 9.37685C8.78241 9.37685 9.49441 9.07045 10.0208 8.51285C10.5576 7.95106 10.8551 7.20265 10.8504 6.42565V6.42645ZM9.64721 6.42645C9.65018 6.87164 9.48041 7.30064 9.17361 7.62325C9.02579 7.78096 8.84726 7.90676 8.649 7.99288C8.45075 8.07901 8.23696 8.12365 8.02081 8.12405C7.11921 8.12405 6.38641 7.36565 6.38641 6.43445C6.38641 5.98005 6.55521 5.55445 6.86001 5.23765C7.17681 4.91525 7.58801 4.73685 8.02001 4.73685C8.45681 4.73685 8.86481 4.91205 9.17361 5.23285C9.48241 5.55205 9.65041 5.97685 9.64721 6.42645Z" fill="#FFA01C"/>
</g>
</svg>
