<svg width="25" height="25" viewBox="0 0 25 25" fill="none" xmlns="http://www.w3.org/2000/svg">
<g id="icon_&#228;&#184;&#170;&#228;&#186;&#186;&#228;&#184;&#173;&#229;&#191;&#131;">
<path id="Vector" d="M12.4463 23.3472C10.979 23.3472 9.55566 23.0591 8.21533 22.4927C6.92139 21.9458 5.75928 21.1621 4.76074 20.1636C3.76221 19.165 2.97852 18.0029 2.43164 16.709C1.86523 15.3687 1.57715 13.9453 1.57715 12.478C1.57715 11.0107 1.86523 9.5874 2.43164 8.24707C2.97852 6.95313 3.76221 5.79102 4.76074 4.79248C5.75928 3.79395 6.92139 3.01025 8.21533 2.46338C9.55566 1.89697 10.979 1.60889 12.4463 1.60889C13.9136 1.60889 15.3369 1.89697 16.6772 2.46338C17.9712 3.01025 19.1333 3.79395 20.1318 4.79248C21.1304 5.79102 21.9141 6.95313 22.4609 8.24707C23.0273 9.5874 23.3154 11.0107 23.3154 12.478C23.3154 13.9453 23.0273 15.3687 22.4609 16.709C21.9141 18.0029 21.1304 19.165 20.1318 20.1636C19.1333 21.1621 17.9712 21.9458 16.6772 22.4927C15.3369 23.0615 13.9111 23.3472 12.4463 23.3472ZM12.4463 3.6084C7.55615 3.6084 3.57666 7.58789 3.57666 12.478C3.57666 17.3682 7.55615 21.3477 12.4463 21.3477C17.3364 21.3477 21.3135 17.3682 21.3135 12.478C21.3135 7.58789 17.3364 3.6084 12.4463 3.6084Z" fill="black"/>
<path id="Vector_2" d="M12.4463 18.5596C10.8008 18.5596 9.31152 17.5196 8.73779 15.9742C8.54492 15.4566 8.80859 14.8804 9.32861 14.6875C9.84619 14.4947 10.4224 14.7583 10.6152 15.2784C10.8984 16.045 11.6357 16.5601 12.4487 16.5601C13.269 16.5601 14.0063 16.0401 14.2871 15.2637C14.4751 14.7437 15.0488 14.4751 15.5688 14.6631C16.0889 14.8511 16.3574 15.4248 16.1694 15.9449C15.6006 17.5074 14.104 18.5596 12.4463 18.5596Z" fill="black"/>
</g>
</svg>
